<svg xmlns="http://www.w3.org/2000/svg" style="display: none;" fill="none" stroke="currentColor" stroke-width="2" stroke-linecap="round" stroke-linejoin="round">
  <symbol id="icon-store" viewBox="0 0 24 24">
    <path d="M15 21v-5a1 1 0 0 0-1-1h-4a1 1 0 0 0-1 1v5" />
    <path d="M17.774 10.31a1.12 1.12 0 0 0-1.549 0 2.5 2.5 0 0 1-3.451 0 1.12 1.12 0 0 0-1.548 0 2.5 2.5 0 0 1-3.452 0 1.12 1.12 0 0 0-1.549 0 2.5 2.5 0 0 1-3.77-3.248l2.889-4.184A2 2 0 0 1 7 2h10a2 2 0 0 1 1.653.873l2.895 4.192a2.5 2.5 0 0 1-3.774 3.244" />
    <path d="M4 10.95V19a2 2 0 0 0 2 2h12a2 2 0 0 0 2-2v-8.05" />
  </symbol>
  <symbol id="icon-orders" viewBox="0 0 24 24">
    <rect width="8" height="4" x="8" y="2" rx="1" ry="1" />
    <path d="M16 4h2a2 2 0 0 1 2 2v14a2 2 0 0 1-2 2H6a2 2 0 0 1-2-2V6a2 2 0 0 1 2-2h2" />
    <path d="M12 11h4" />
    <path d="M12 16h4" />
    <path d="M8 11h.01" />
    <path d="M8 16h.01" />
  </symbol>
  <symbol id="icon-bowl" viewBox="0 0 24 24">
    <path d="M12 21a9 9 0 0 0 9-9H3a9 9 0 0 0 9 9Z" />
    <path d="M7 21h10" />
    <path d="M19.5 12 22 6" />
    <path d="M16.25 3c.27.1.8.53.75 1.36-.06.83-.93 1.2-1 2.02-.05.78.34 1.24.73 1.62" />
    <path d="M11.25 3c.27.1.8.53.74 1.36-.05.83-.93 1.2-.98 2.02-.06.78.33 1.24.72 1.62" />
    <path d="M6.25 3c.27.1.8.53.75 1.36-.06.83-.93 1.2-1 2.02-.05.78.34 1.24.74 1.62" />
  </symbol>
  <symbol id="icon-user" viewBox="0 0 24 24">
    <circle cx="12" cy="8" r="5" />
    <path d="M20 21a8 8 0 0 0-16 0" />
  </symbol>
  <symbol id="icon-home" viewBox="0 0 24 24">
    <path d="M15 21v-8a1 1 0 0 0-1-1h-4a1 1 0 0 0-1 1v8" />
    <path d="M3 10a2 2 0 0 1 .709-1.528l7-6a2 2 0 0 1 2.582 0l7 6A2 2 0 0 1 21 10v9a2 2 0 0 1-2 2H5a2 2 0 0 1-2-2z" />
  </symbol>
  <symbol id="icon-rider" viewBox="0 0 24 24">
    <circle cx="18.5" cy="17.5" r="3.5" />
    <circle cx="5.5" cy="17.5" r="3.5" />
    <circle cx="15" cy="5" r="1" />
    <path d="M12 17.5V14l-3-3 4-3 2 3h2" />
  </symbol>
  <symbol id="icon-wallet" viewBox="0 0 24 24">
    <path d="M19 7V4a1 1 0 0 0-1-1H5a2 2 0 0 0 0 4h15a1 1 0 0 1 1 1v4h-3a2 2 0 0 0 0 4h3a1 1 0 0 0 1-1v-2a1 1 0 0 0-1-1" />
    <path d="M3 5v14a2 2 0 0 0 2 2h15a1 1 0 0 0 1-1v-4" />
  </symbol>
  <symbol id="icon-box" viewBox="0 0 24 24">
    <path d="M11 21.73a2 2 0 0 0 2 0l7-4A2 2 0 0 0 21 16V8a2 2 0 0 0-1-1.73l-7-4a2 2 0 0 0-2 0l-7 4A2 2 0 0 0 3 8v8a2 2 0 0 0 1 1.73z" />
    <path d="M12 22V12" />
    <polyline points="3.29 7 12 12 20.71 7" />
    <path d="m7.5 4.27 9 5.15" />
  </symbol>
  <symbol id="icon-camera" viewBox="0 0 24 24">
    <path d="M13.997 4a2 2 0 0 1 1.76 1.05l.486.9A2 2 0 0 0 18.003 7H20a2 2 0 0 1 2 2v9a2 2 0 0 1-2 2H4a2 2 0 0 1-2-2V9a2 2 0 0 1 2-2h1.997a2 2 0 0 0 1.759-1.048l.489-.904A2 2 0 0 1 10.004 4z" />
    <circle cx="12" cy="13" r="3" />
  </symbol>
  <symbol id="icon-chart" viewBox="0 0 24 24">
    <path d="M3 3v16a2 2 0 0 0 2 2h16" />
    <path d="M18 17V9" />
    <path d="M13 17V5" />
    <path d="M8 17v-3" />
  </symbol>
  <symbol id="icon-check" viewBox="0 0 24 24">
    <path d="M21.801 10A10 10 0 1 1 17 3.335" />
    <path d="m9 11 3 3L22 4" />
  </symbol>
  <symbol id="icon-clock" viewBox="0 0 24 24">
    <circle cx="12" cy="12" r="10" />
    <path d="M12 6v6h4" />
  </symbol>
  <symbol id="icon-location" viewBox="0 0 24 24">
    <path d="M20 10c0 4.993-5.539 10.193-7.399 11.799a1 1 0 0 1-1.202 0C9.539 20.193 4 14.993 4 10a8 8 0 0 1 16 0" />
    <circle cx="12" cy="10" r="3" />
  </symbol>
  <symbol id="icon-message" viewBox="0 0 24 24">
    <path d="M2.992 16.342a2 2 0 0 1 .094 1.167l-1.065 3.29a1 1 0 0 0 1.236 1.168l3.413-.998a2 2 0 0 1 1.099.092 10 10 0 1 0-4.777-4.719" />
    <path d="M8 12h.01" />
    <path d="M12 12h.01" />
    <path d="M16 12h.01" />
  </symbol>
  <symbol id="icon-phone" viewBox="0 0 24 24">
    <path d="M13.832 16.568a1 1 0 0 0 1.213-.303l.355-.465A2 2 0 0 1 17 15h3a2 2 0 0 1 2 2v3a2 2 0 0 1-2 2A18 18 0 0 1 2 4a2 2 0 0 1 2-2h3a2 2 0 0 1 2 2v3a2 2 0 0 1-.8 1.6l-.468.351a1 1 0 0 0-.292 1.233 14 14 0 0 0 6.392 6.384" />
  </symbol>
  <symbol id="icon-refresh" viewBox="0 0 24 24">
    <path d="M3 12a9 9 0 0 1 9-9 9.75 9.75 0 0 1 6.74 2.74L21 8" />
    <path d="M21 3v5h-5" />
    <path d="M21 12a9 9 0 0 1-9 9 9.75 9.75 0 0 1-6.74-2.74L3 16" />
    <path d="M8 16H3v5" />
  </symbol>
  <symbol id="icon-shield" viewBox="0 0 24 24">
    <path d="M20 13c0 5-3.5 7.5-7.66 8.95a1 1 0 0 1-.67-.01C7.5 20.5 4 18 4 13V6a1 1 0 0 1 1-1c2 0 4.5-1.2 6.24-2.72a1.17 1.17 0 0 1 1.52 0C14.51 3.81 17 5 19 5a1 1 0 0 1 1 1z" />
    <path d="m9 12 2 2 4-4" />
  </symbol>
  <symbol id="icon-id-card" viewBox="0 0 24 24">
    <path d="M16 10h2" />
    <path d="M16 14h2" />
    <path d="M6.17 15a3 3 0 0 1 5.66 0" />
    <circle cx="9" cy="11" r="2" />
    <rect x="2" y="5" width="20" height="14" rx="2" />
  </symbol>
  <symbol id="icon-star" viewBox="0 0 24 24">
    <path d="M11.525 2.295a.53.53 0 0 1 .95 0l2.31 4.679a2.123 2.123 0 0 0 1.595 1.16l5.166.756a.53.53 0 0 1 .294.904l-3.736 3.638a2.123 2.123 0 0 0-.611 1.878l.882 5.14a.53.53 0 0 1-.771.56l-4.618-2.428a2.122 2.122 0 0 0-1.973 0L6.396 21.01a.53.53 0 0 1-.77-.56l.881-5.139a2.122 2.122 0 0 0-.611-1.879L2.16 9.795a.53.53 0 0 1 .294-.906l5.165-.755a2.122 2.122 0 0 0 1.597-1.16z" />
  </symbol>
  <symbol id="icon-flash" viewBox="0 0 24 24">
    <path d="M4 14a1 1 0 0 1-.78-1.63l9.9-10.2a.5.5 0 0 1 .86.46l-1.92 6.02A1 1 0 0 0 13 10h7a1 1 0 0 1 .78 1.63l-9.9 10.2a.5.5 0 0 1-.86-.46l1.92-6.02A1 1 0 0 0 11 14z" />
  </symbol>
  <symbol id="icon-route" viewBox="0 0 24 24">
    <circle cx="6" cy="19" r="3" />
    <path d="M9 19h8.5a3.5 3.5 0 0 0 0-7h-11a3.5 3.5 0 0 1 0-7H15" />
    <circle cx="18" cy="5" r="3" />
  </symbol>
</svg>
